<mxfile host="Electron" agent="Mozilla/5.0 (Windows NT 10.0; Win64; x64) AppleWebKit/537.36 (KHTML, like Gecko) draw.io/27.0.9 Chrome/134.0.6998.205 Electron/35.4.0 Safari/537.36" version="27.0.9">
  <diagram name="LiliWelt UML Diagram" id="LiliWeltUML">
    <mxGraphModel dx="1839" dy="596" grid="1" gridSize="10" guides="1" tooltips="1" connect="1" arrows="1" fold="1" page="1" pageScale="1" pageWidth="827" pageHeight="1169" math="0" shadow="0">
      <root>
        <mxCell id="0" />
        <mxCell id="1" parent="0" />
        <mxCell id="2" value="Validator class (static methods)&lt;div&gt;@staticmethod&lt;/div&gt;" style="shape=swimlane;childLayout=stackLayout;html=1;" parent="1" vertex="1">
          <mxGeometry x="-695" y="80" width="200" height="180" as="geometry" />
        </mxCell>
        <mxCell id="1ZPInOAgm1Nmp2igUwMB-8" value="&lt;div&gt;+ validate_email()&lt;/div&gt;&lt;div&gt;+ validate_phone()&lt;/div&gt;&lt;div&gt;+ validate_name()&lt;/div&gt;&lt;div&gt;+ validate_address()&lt;/div&gt;&lt;div&gt;+ validate_postcode()&lt;/div&gt;&lt;div&gt;+ validate_locality()&lt;/div&gt;&lt;div&gt;+ validate_birthdate()&lt;/div&gt;&lt;div&gt;+ validate_company_number()&lt;/div&gt;&lt;div&gt;+ validate_password()&lt;/div&gt;" style="text;html=1;align=center;verticalAlign=middle;resizable=0;points=[];autosize=1;strokeColor=none;fillColor=none;" parent="2" vertex="1">
          <mxGeometry y="40" width="190" height="140" as="geometry" />
        </mxCell>
        <mxCell id="3" value="&lt;div&gt;Base class: Customer&lt;/div&gt;" style="shape=swimlane;childLayout=stackLayout;html=1;startSize=40;" parent="1" vertex="1">
          <mxGeometry x="-420" y="20" width="250" height="305" as="geometry" />
        </mxCell>
        <mxCell id="1ZPInOAgm1Nmp2igUwMB-10" value="&lt;div&gt;- id&lt;/div&gt;&lt;div&gt;- name&lt;/div&gt;&lt;div&gt;- address&lt;/div&gt;&lt;div&gt;-postcode&lt;/div&gt;&lt;div&gt;-locality&lt;/div&gt;&lt;div&gt;- email&lt;/div&gt;&lt;div&gt;- phone&lt;/div&gt;&lt;div&gt;- password&lt;/div&gt;&lt;div&gt;---------------------&lt;/div&gt;&lt;div&gt;+ __init__()&lt;/div&gt;&lt;div&gt;+ get_id()&lt;/div&gt;&lt;div&gt;+ set_name()&lt;/div&gt;&lt;div&gt;+ set_address()&lt;/div&gt;&lt;div&gt;+ set_postcode()&lt;/div&gt;&lt;div&gt;+set_locality()&lt;/div&gt;&lt;div&gt;+ set_email()&lt;/div&gt;&lt;div&gt;+ set_phone()&lt;/div&gt;&lt;div&gt;+ set_password()&#39;&lt;/div&gt;" style="text;html=1;align=center;verticalAlign=middle;resizable=0;points=[];autosize=1;strokeColor=none;fillColor=none;" parent="3" vertex="1">
          <mxGeometry y="40" width="120" height="265" as="geometry" />
        </mxCell>
        <mxCell id="4" value="&lt;div&gt;Derived class: PrivateCustomer&lt;/div&gt;" style="shape=swimlane;childLayout=stackLayout;html=1;" parent="1" vertex="1">
          <mxGeometry x="-80" y="20" width="280" height="140" as="geometry" />
        </mxCell>
        <mxCell id="1ZPInOAgm1Nmp2igUwMB-13" value="&lt;div&gt;- birthdate&lt;/div&gt;&lt;div&gt;---------------------&lt;/div&gt;&lt;div&gt;+ __init__()&lt;/div&gt;&lt;div&gt;+ get_birthdate()&lt;/div&gt;&lt;div&gt;+ calculate_age()&lt;/div&gt;" style="text;html=1;align=center;verticalAlign=middle;resizable=0;points=[];autosize=1;strokeColor=none;fillColor=none;" parent="4" vertex="1">
          <mxGeometry y="40" width="120" height="100" as="geometry" />
        </mxCell>
        <mxCell id="5" value="&lt;div&gt;Derived class: CompanyCustomer&lt;/div&gt;" style="shape=swimlane;childLayout=stackLayout;html=1;" parent="1" vertex="1">
          <mxGeometry x="-105" y="180" width="330" height="140" as="geometry" />
        </mxCell>
        <mxCell id="6" style="endArrow=block;dashed=0;" parent="1" source="4" target="3" edge="1">
          <mxGeometry relative="1" as="geometry" />
        </mxCell>
        <mxCell id="7" style="endArrow=block;dashed=0;" parent="1" source="5" target="3" edge="1">
          <mxGeometry relative="1" as="geometry" />
        </mxCell>
        <mxCell id="1ZPInOAgm1Nmp2igUwMB-14" value="&lt;div&gt;- company_number&lt;/div&gt;&lt;div&gt;---------------------&lt;/div&gt;&lt;div&gt;+ __init__()&lt;/div&gt;&lt;div&gt;+ validate_company_number()&lt;/div&gt;" style="text;html=1;align=center;verticalAlign=middle;resizable=0;points=[];autosize=1;strokeColor=none;fillColor=none;" parent="1" vertex="1">
          <mxGeometry x="-35" y="220" width="190" height="100" as="geometry" />
        </mxCell>
      </root>
    </mxGraphModel>
  </diagram>
</mxfile>
